<?xml version="1.0" encoding="UTF-8"?>
<svg version="1.1" xmlns="http://www.w3.org/2000/svg" width="512" height="512">
<path d="M0 0 C1.42590325 0.00222313 2.85180657 0.00439962 4.27770996 0.00653076 C24.8200524 0.04905826 45.13178305 0.36788727 65.5 3.3125 C66.20312317 3.41195923 66.90624634 3.51141846 67.63067627 3.6138916 C110.94720764 9.75850028 167.87235119 18.60114507 197.5 54.3125 C202.35187549 61.21830119 205.7392233 67.72638586 205.76742554 76.31964111 C205.78022049 78.08992928 205.78022049 78.08992928 205.79327393 79.89598083 C205.79236755 81.17715286 205.79146118 82.45832489 205.79052734 83.77832031 C205.79651705 85.15212874 205.80332362 86.52593381 205.81088257 87.8997345 C205.82850713 91.62102445 205.83323651 95.34222234 205.83451414 99.06355 C205.83593858 101.39239005 205.84021377 103.72120692 205.84550858 106.0500412 C205.8639988 114.18588234 205.87218066 122.32165807 205.87060547 130.45751953 C205.8694051 138.02268495 205.89048925 145.5875646 205.9220928 153.15265775 C205.94831156 159.66244884 205.95897039 166.17214694 205.95769465 172.68199039 C205.95718656 176.56341785 205.96278435 180.44459134 205.98405075 184.32596588 C206.00352741 187.98032908 206.00349412 191.63419853 205.98901749 195.28857994 C205.98595569 197.25471282 206.00254062 199.22084625 206.01989746 201.18690491 C205.91993632 215.3842066 200.54614132 224.09048884 191.0625 234.1875 C183.11459722 241.94446218 167.18359615 255.3125 155.5 255.3125 C155.5 255.9725 155.5 256.6325 155.5 257.3125 C156.69625 257.6425 157.8925 257.9725 159.125 258.3125 C170.05248135 261.97793863 179.94813695 268.70458229 188.5 276.3125 C189.78197266 277.41851562 189.78197266 277.41851562 191.08984375 278.546875 C199.5005013 286.28720947 205.59901154 295.74257021 206.37542725 307.30618286 C206.41034142 309.7860702 206.40813328 312.2666835 206.37402344 314.74658203 C206.38025568 316.12819004 206.38949351 317.50978717 206.40145874 318.89135742 C206.42456181 322.59834431 206.4044356 326.30387727 206.3744154 330.01076746 C206.34898645 333.91553754 206.35984292 337.82024098 206.36529541 341.72506714 C206.3688648 348.27641994 206.34450657 354.82720667 206.30273438 361.37841797 C206.25492937 368.9234028 206.24971708 376.46749482 206.2676847 384.01258957 C206.2842273 391.31159851 206.272261 398.61029196 206.24695587 405.90926743 C206.23662658 408.99752546 206.23570997 412.08556584 206.24260712 415.17383194 C206.24932332 418.81703313 206.23073659 422.4593007 206.19359207 426.10231018 C206.17930495 428.05597915 206.1890611 430.00977909 206.19985962 431.96347046 C206.01254352 445.09558348 201.59891795 454.30695576 192.515625 463.49609375 C161.19272209 493.39062366 112.51027818 502.49190883 71.25 508.5625 C70.23647461 508.71356201 69.22294922 508.86462402 68.17871094 509.02026367 C45.85825735 512.10524685 23.50100938 512.68711385 1 512.625 C-0.42590325 512.62277687 -1.85180657 512.62060038 -3.27770996 512.61846924 C-23.81817709 512.57594563 -44.13449641 512.26663423 -64.5 509.3125 C-65.21254944 509.2106842 -65.92509888 509.10886841 -66.65924072 509.00396729 C-86.17380876 506.20237348 -105.55202588 502.84600838 -124.5 497.3125 C-125.46728027 497.03212891 -126.43456055 496.75175781 -127.43115234 496.46289062 C-154.52900642 488.43586568 -186.35378378 476.46112787 -201.30859375 450.76953125 C-203.65335709 445.93393734 -204.74978808 441.67951271 -204.76742554 436.30535889 C-204.77595551 435.12516678 -204.78448547 433.94497467 -204.79327393 432.72901917 C-204.79236755 431.44784714 -204.79146118 430.16667511 -204.79052734 428.84667969 C-204.79651705 427.47287126 -204.80332362 426.09906619 -204.81088257 424.7252655 C-204.82850713 421.00397555 -204.83323651 417.28277766 -204.83451414 413.56145 C-204.83593858 411.23260995 -204.84021377 408.90379308 -204.84550858 406.5749588 C-204.8639988 398.43911766 -204.87218066 390.30334193 -204.87060547 382.16748047 C-204.8694051 374.60231505 -204.89048925 367.0374354 -204.9220928 359.47234225 C-204.94831156 352.96255116 -204.95897039 346.45285306 -204.95769465 339.94300961 C-204.95718656 336.06158215 -204.96278435 332.18040866 -204.98405075 328.29903412 C-205.00352741 324.64467092 -205.00349412 320.99080147 -204.98901749 317.33642006 C-204.98595569 315.37028718 -205.00254062 313.40415375 -205.01989746 311.43809509 C-204.93096381 298.80700736 -200.7738343 289.7954825 -192.5 280.3125 C-184.19457481 272.19001369 -166.72059913 257.3125 -154.5 257.3125 C-154.5 256.6525 -154.5 255.9925 -154.5 255.3125 C-155.69625 254.9825 -156.8925 254.6525 -158.125 254.3125 C-169.18821587 250.60153153 -178.69856831 243.80516861 -187.5 236.3125 C-189.046875 235.1678125 -189.046875 235.1678125 -190.625 234 C-197.64166622 227.44094245 -203.84490482 219.14513001 -204.78384399 209.35201263 C-204.90404923 205.75160381 -204.92816854 202.1620007 -204.91992188 198.55957031 C-204.92727251 197.17885659 -204.93586161 195.79814899 -204.94558716 194.41744995 C-204.9677116 190.68577707 -204.9707383 186.95432562 -204.96883965 183.22259617 C-204.96871948 180.09676324 -204.97730255 176.97097644 -204.98561716 173.84515643 C-205.00481997 166.46314556 -205.00774705 159.08124775 -205.00097656 151.69921875 C-204.99434351 144.11011795 -205.01717732 136.52150412 -205.05429029 128.93250203 C-205.08509066 122.39459939 -205.09633602 115.85685253 -205.09245348 109.31887889 C-205.09039599 105.4239564 -205.09570837 101.52941274 -205.12034607 97.63455963 C-205.1427817 93.96692978 -205.14059828 90.30008511 -205.12041855 86.6324501 C-205.11544009 84.66433175 -205.13490685 82.69619762 -205.15542603 80.72817993 C-205.03232582 67.55203344 -200.62621495 58.34565932 -191.515625 49.12890625 C-160.50643824 19.53378655 -111.78031953 9.84004843 -70.8125 4.0625 C-69.21498901 3.83590698 -69.21498901 3.83590698 -67.58520508 3.60473633 C-45.10491046 0.64200962 -22.65017 -0.06252561 0 0 Z M-10.1796875 128.36669922 C-42.60682682 129.10319094 -74.53186864 132.68272501 -106.25 139.5 C-106.97687012 139.65460693 -107.70374023 139.80921387 -108.45263672 139.96850586 C-112.37522214 140.85667534 -112.37522214 140.85667534 -115.5 143.3125 C-94.92582765 152.18529792 -74.31499517 160.96646839 -53.62866211 169.57495117 C-51.82141998 170.32723472 -50.01420961 171.07959454 -48.20703125 171.83203125 C-46.87353889 172.38714638 -46.87353889 172.38714638 -45.5131073 172.95347595 C-40.18941154 175.17476373 -34.88121531 177.42895563 -29.58482361 179.71456909 C-26.26178827 181.14762574 -22.93373988 182.56881169 -19.60519409 183.98901367 C-18.05175214 184.65584133 -16.50082932 185.32857263 -14.95266724 186.00756836 C-12.82358799 186.94085377 -10.68664739 187.85327683 -8.546875 188.76171875 C-7.34901367 189.28080811 -6.15115234 189.79989746 -4.91699219 190.3347168 C1.8257252 192.26416686 7.30217203 189.82623917 13.421875 187.12890625 C14.56317116 186.63851364 14.56317116 186.63851364 15.7275238 186.13821411 C17.37472837 185.42941078 19.02030403 184.71681239 20.66439819 184.00082397 C24.20919884 182.45734518 27.76198747 180.93266665 31.31437683 179.40675354 C33.18506623 178.60302526 35.05535038 177.79835314 36.92524719 176.99278259 C47.14963897 172.59083648 57.41596308 168.29051698 67.6875 164 C69.4929267 163.24505202 71.29834668 162.49008795 73.10375977 161.73510742 C87.88682726 155.55634064 102.68640005 149.41769806 117.5 143.3125 C112.82587292 140.19641528 107.57451065 139.5914019 102.125 138.4375 C100.88145752 138.17356445 99.63791504 137.90962891 98.35668945 137.63769531 C62.75560762 130.30352853 26.13211177 127.63225867 -10.1796875 128.36669922 Z M-9.71484375 324.58203125 C-10.5413443 324.92992706 -11.36784485 325.27782288 -12.21939087 325.63626099 C-14.96164789 326.79246768 -17.69951312 327.95872145 -20.4375 329.125 C-22.36096978 329.93823676 -24.2847213 330.75080746 -26.20874023 331.56274414 C-30.24984806 333.26943379 -34.28917531 334.98024313 -38.32714844 336.69433594 C-44.36271335 339.25583816 -50.40332307 341.80525763 -56.4453125 344.3515625 C-67.46679269 348.99753044 -78.48406459 353.65340276 -89.5 358.3125 C-90.99804202 358.94597503 -92.49608866 359.57943913 -93.99414062 360.21289062 C-101.16342094 363.24453353 -108.33220175 366.27735437 -115.5 369.3125 C-111.84430036 372.96819964 -106.12512077 373.14925071 -101.1875 374.1875 C-99.9394458 374.45143555 -98.6913916 374.71537109 -97.40551758 374.98730469 C-62.74931353 382.10182454 -26.87007447 385.10586186 8.5 384.3125 C9.38429688 384.29461426 10.26859375 384.27672852 11.1796875 384.25830078 C47.13917344 383.44158169 82.64186531 379.35406915 117.5 370.3125 C114.14706083 368.07720722 110.66410646 366.58712318 106.96875 365.03125 C106.2022261 364.70573654 105.43570221 364.38022308 104.64595032 364.04484558 C102.0986289 362.96423066 99.54937592 361.88825811 97 360.8125 C95.20655916 360.05329525 93.41318464 359.29393383 91.61987305 358.53442383 C74.09470227 351.11855588 56.54557783 343.75940711 38.98121643 336.43688965 C34.19556128 334.44093099 29.41384367 332.43604077 24.63679504 330.41957092 C21.90726121 329.2683025 19.17550096 328.1223912 16.44320679 326.97769165 C14.61808193 326.21085312 12.79592773 325.43695616 10.97387695 324.6628418 C9.36452271 323.99055542 9.36452271 323.99055542 7.72265625 323.3046875 C6.80234619 322.91651855 5.88203613 322.52834961 4.93383789 322.12841797 C-0.58781295 320.27734393 -4.68765949 322.42506643 -9.71484375 324.58203125 Z " fill="#63B8F8" transform="translate(255.5,-0.3125)"/>
<path d="M0 0 C1.42590325 0.00222313 2.85180657 0.00439962 4.27770996 0.00653076 C24.8200524 0.04905826 45.13178305 0.36788727 65.5 3.3125 C66.20312317 3.41195923 66.90624634 3.51141846 67.63067627 3.6138916 C110.94720764 9.75850028 167.87235119 18.60114507 197.5 54.3125 C203.58950744 62.97985508 206.63768657 70.63246729 205.5 81.3125 C201.6765737 97.1058575 190.48774312 108.12716643 177.125 116.5625 C174.93086658 117.83726062 172.72256465 119.08798275 170.5 120.3125 C169.51515625 120.86035156 168.5303125 121.40820312 167.515625 121.97265625 C158.33755159 126.80141875 148.72006773 130.57436023 139.09326172 134.40551758 C131.97451409 137.24295334 131.97451409 137.24295334 125.1171875 140.64453125 C117.35213518 144.22517632 109.83586201 141.41127537 101.875 139.5625 C66.18881431 131.61398924 29.04652321 128.49275002 -7.5 129.3125 C-8.38429687 129.33038574 -9.26859375 129.34827148 -10.1796875 129.36669922 C-45.05322466 130.15875402 -79.56932729 134.08270269 -113.5 142.3125 C-110.6369064 145.1755936 -107.09992201 146.29584911 -103.41015625 147.8125 C-102.57535736 148.16030014 -101.74055847 148.50810028 -100.88046265 148.86643982 C-98.10967031 150.01966337 -95.33607737 151.16599276 -92.5625 152.3125 C-90.62421168 153.11804504 -88.68614505 153.92412369 -86.74829102 154.73071289 C-82.70318133 156.41388741 -78.65711334 158.09472736 -74.61035156 159.77392578 C-65.95392695 163.36779727 -57.3083429 166.98753395 -48.66320801 170.60845947 C-45.95373443 171.74320094 -43.24398186 172.87727396 -40.53417969 174.01123047 C-26.8410102 179.74277742 -13.16234157 185.50781513 0.5 191.3125 C-1.09685563 194.50621126 -4.40297761 195.09849971 -7.578125 196.359375 C-8.30054382 196.65305969 -9.02296265 196.94674438 -9.76727295 197.24932861 C-12.09230119 198.19349459 -14.42085834 199.12853249 -16.75 200.0625 C-19.77772108 201.28233833 -22.80369352 202.50640355 -25.828125 203.734375 C-26.57234207 204.0362674 -27.31655914 204.33815979 -28.08332825 204.64920044 C-33.64034038 206.92035541 -39.0863508 209.3883904 -44.52001953 211.94140625 C-49.21863026 214.10324451 -54.00993295 216.02058086 -58.8125 217.9375 C-64.58023431 220.2397638 -70.23749172 222.59638236 -75.7644043 225.43310547 C-78.04941072 226.59087634 -80.37748982 227.59818941 -82.75 228.5625 C-83.55953125 228.89765625 -84.3690625 229.2328125 -85.203125 229.578125 C-87.5 230.3125 -87.5 230.3125 -91.5 230.3125 C-91.83 231.3025 -92.16 232.2925 -92.5 233.3125 C-93.16 233.3125 -93.82 233.3125 -94.5 233.3125 C-94.5 233.9725 -94.5 234.6325 -94.5 235.3125 C-95.05042969 235.43882812 -95.60085937 235.56515625 -96.16796875 235.6953125 C-103.9077933 237.74370828 -111.3653958 240.99304309 -118.64453125 244.28125 C-122.78704718 246.1443236 -126.92360117 247.84196147 -131.1953125 249.39453125 C-135.33232151 251.04232297 -139.33171179 252.99756384 -143.3515625 254.91015625 C-146.37600242 256.25727031 -149.3082866 257.42997753 -152.5 258.3125 C-153.16 257.9825 -153.82 257.6525 -154.5 257.3125 C-154.5 256.6525 -154.5 255.9925 -154.5 255.3125 C-155.69625 254.9825 -156.8925 254.6525 -158.125 254.3125 C-169.18821587 250.60153153 -178.69856831 243.80516861 -187.5 236.3125 C-189.046875 235.1678125 -189.046875 235.1678125 -190.625 234 C-197.64166622 227.44094245 -203.84490482 219.14513001 -204.78384399 209.35201263 C-204.90404923 205.75160381 -204.92816854 202.1620007 -204.91992188 198.55957031 C-204.92727251 197.17885659 -204.93586161 195.79814899 -204.94558716 194.41744995 C-204.9677116 190.68577707 -204.9707383 186.95432562 -204.96883965 183.22259617 C-204.96871948 180.09676324 -204.97730255 176.97097644 -204.98561716 173.84515643 C-205.00481997 166.46314556 -205.00774705 159.08124775 -205.00097656 151.69921875 C-204.99434351 144.11011795 -205.01717732 136.52150412 -205.05429029 128.93250203 C-205.08509066 122.39459939 -205.09633602 115.85685253 -205.09245348 109.31887889 C-205.09039599 105.4239564 -205.09570837 101.52941274 -205.12034607 97.63455963 C-205.1427817 93.96692978 -205.14059828 90.30008511 -205.12041855 86.6324501 C-205.11544009 84.66433175 -205.13490685 82.69619762 -205.15542603 80.72817993 C-205.03232582 67.55203344 -200.62621495 58.34565932 -191.515625 49.12890625 C-160.50643824 19.53378655 -111.78031953 9.84004843 -70.8125 4.0625 C-69.21498901 3.83590698 -69.21498901 3.83590698 -67.58520508 3.60473633 C-45.10491046 0.64200962 -22.65017 -0.06252561 0 0 Z " fill="#107DE1" transform="translate(255.5,-0.3125)"/>
<path d="M0 0 C-0.66 0.66 -1.32 1.32 -2 2 C38.01924017 11.24197656 78.88361945 15.92225331 120 15 C120.88429688 14.98211426 121.76859375 14.96422852 122.6796875 14.94580078 C155.22192004 14.20669504 188.79044691 11.56612617 220.33740234 3.08032227 C229.83905991 0.68721277 237.14954055 3.53050045 245.75 7.5 C247.78464984 8.41648966 249.81981806 9.33182926 251.85546875 10.24609375 C252.87817871 10.70870605 253.90088867 11.17131836 254.95458984 11.64794922 C257.84385533 12.93067747 260.74953742 14.15206931 263.67578125 15.34765625 C283.9040316 23.6300181 305.57553791 35.12628904 315 56 C317.98125997 63.93449919 318.05780675 71.9088588 315.1875 79.875 C304.81854955 102.56436067 278.48339551 114.22853688 256.5546875 122.61328125 C232.73191123 131.43899922 207.83946863 136.55860689 182.75 140.25 C181.73647461 140.40106201 180.72294922 140.55212402 179.67871094 140.70776367 C157.35825735 143.79274685 135.00100938 144.37461385 112.5 144.3125 C111.07409675 144.31027687 109.64819343 144.30810038 108.22229004 144.30596924 C87.68182291 144.26344563 67.36550359 143.95413423 47 141 C46.28745056 140.8981842 45.57490112 140.79636841 44.84075928 140.69146729 C25.32619124 137.88987348 5.94797412 134.53350838 -13 129 C-13.96728027 128.71962891 -14.93456055 128.43925781 -15.93115234 128.15039062 C-42.7193188 120.21510247 -75.52777865 108.16443364 -89.84765625 82.26171875 C-93.8031786 74.4981681 -94.35458735 65.88363269 -92 57.4375 C-87.39341815 45.46473302 -77.54567641 36.3709207 -67.0390625 29.578125 C-64.71909686 28.08510496 -64.71909686 28.08510496 -64 25 C-61 23 -61 23 -57 23 C-56.67 21.35 -56.34 19.7 -56 18 C-54.02 18 -52.04 18 -50 18 C-50 17.67 -50 17.34 -50 17 C-46.38026598 15.68373308 -43.90432869 15 -40 15 C-40 14.34 -40 13.68 -40 13 C-39.18208984 12.74476563 -39.18208984 12.74476563 -38.34765625 12.484375 C-33.34737809 10.877448 -28.5997776 9.00730268 -23.84765625 6.76953125 C-22 6 -22 6 -20 6 C-20 5.34 -20 4.68 -20 4 C-17.23208055 3.13521219 -14.46134374 2.28288326 -11.6875 1.4375 C-10.90181641 1.19064453 -10.11613281 0.94378906 -9.30664062 0.68945312 C-8.54931641 0.46064453 -7.79199219 0.23183594 -7.01171875 -0.00390625 C-6.31522217 -0.21861572 -5.61872559 -0.4333252 -4.90112305 -0.65454102 C-3 -1 -3 -1 0 0 Z " fill="#146ED6" transform="translate(144,368)"/>
<path d="M0 0 C0.33 0 0.66 0 1 0 C1.12375 0.59425781 1.2475 1.18851562 1.375 1.80078125 C5.24323766 17.34626135 17.78858821 27.77122181 30.78515625 36.11328125 C36.64948481 39.55492243 42.76778749 42.3110566 49 45 C49.97404785 45.42216797 50.9480957 45.84433594 51.95166016 46.27929688 C55.27672271 47.71547413 58.6059733 49.1413844 61.9375 50.5625 C62.98437988 51.00956299 64.03125977 51.45662598 65.10986328 51.91723633 C70.86519713 54.34597479 76.65387003 56.63496573 82.515625 58.79296875 C91.45617585 62.0971266 100.2142159 65.80929033 108.98178101 69.54418945 C113.91471773 71.6454885 118.85230252 73.73582815 123.7890625 75.828125 C124.80024643 76.25706055 125.81143036 76.68599609 126.85325623 77.12792969 C137.449866 81.6207281 148.06756039 86.06269866 158.6875 90.5 C174.14208623 96.96004142 189.58331045 103.44994969 205 110 C203.40314437 113.19371126 200.09702239 113.78599971 196.921875 115.046875 C196.19945618 115.34055969 195.47703735 115.63424438 194.73272705 115.93682861 C192.40769881 116.88099459 190.07914166 117.81603249 187.75 118.75 C184.72227892 119.96983833 181.69630648 121.19390355 178.671875 122.421875 C177.92765793 122.7237674 177.18344086 123.02565979 176.41667175 123.33670044 C170.85965962 125.60785541 165.4136492 128.0758904 159.97998047 130.62890625 C155.28136974 132.79074451 150.49006705 134.70808086 145.6875 136.625 C139.91976569 138.9272638 134.26250828 141.28388236 128.7355957 144.12060547 C126.45058928 145.27837634 124.12251018 146.28568941 121.75 147.25 C120.94046875 147.58515625 120.1309375 147.9203125 119.296875 148.265625 C117 149 117 149 113 149 C112.67 149.99 112.34 150.98 112 152 C111.34 152 110.68 152 110 152 C110 152.66 110 153.32 110 154 C109.44957031 154.12632812 108.89914063 154.25265625 108.33203125 154.3828125 C100.5922067 156.43120828 93.1346042 159.68054309 85.85546875 162.96875 C81.71295282 164.8318236 77.57639883 166.52946147 73.3046875 168.08203125 C69.16767849 169.72982297 65.16828821 171.68506384 61.1484375 173.59765625 C58.12399758 174.94477031 55.1917134 176.11747753 52 177 C51.34 176.67 50.68 176.34 50 176 C50 175.34 50 174.68 50 174 C48.80375 173.67 47.6075 173.34 46.375 173 C35.31178413 169.28903153 25.80143169 162.49266861 17 155 C15.453125 153.8553125 15.453125 153.8553125 13.875 152.6875 C6.92755061 146.19314513 0.65922616 137.89389054 -0.26956749 128.1809845 C-0.36834052 124.80578235 -0.37102189 121.44293861 -0.34057617 118.06640625 C-0.34101425 116.78752029 -0.34145233 115.50863434 -0.34190369 114.19099426 C-0.34275989 110.7059133 -0.3251956 107.22114588 -0.30418181 103.73613739 C-0.28535193 100.08598953 -0.28365962 96.43583347 -0.28010559 92.78564453 C-0.27080357 85.88327006 -0.24621497 78.98103915 -0.21605712 72.07872772 C-0.18245549 64.21655974 -0.16601266 56.35438469 -0.15097082 48.4921627 C-0.1196636 32.3280246 -0.06693926 16.16403066 0 0 Z " fill="#1E8FE7" transform="translate(51,81)"/>
<path d="M0 0 C13.82403661 6.72727954 28.17394901 14.86247667 37.46875 27.46875 C38.3526667 28.63608925 38.3526667 28.63608925 39.25444031 29.82701111 C46.78997998 41.97205412 45.37349855 55.74337482 45.17850757 69.54290533 C45.13431397 73.20495299 45.1306027 76.86705419 45.12232971 80.52932739 C45.10069866 87.44243573 45.04342982 94.35475568 44.97288328 101.26751912 C44.89424514 109.14666286 44.85605496 117.02584716 44.82101524 124.90528655 C44.74813286 141.09356687 44.62525863 157.28105735 44.46875 173.46875 C43.01271632 170.61552364 41.8552112 167.79903236 40.78125 164.78125 C32.97652961 145.19744976 11.03408664 134.21438231 -7.24658203 126.29199219 C-16.7027968 122.26127094 -26.22012222 118.38598167 -35.76953125 114.58203125 C-43.80813279 111.37683073 -51.79672249 108.05594364 -59.78125 104.71875 C-61.33672475 104.06951645 -62.89222685 103.42034844 -64.44775391 102.77124023 C-68.61152477 101.03322607 -72.77458416 99.29351463 -76.93737793 97.55316162 C-79.55093596 96.46051996 -82.16462048 95.36818132 -84.77832031 94.27587891 C-110.04665354 83.7146682 -135.29613829 73.10908336 -160.53125 62.46875 C-159.53125 60.46875 -159.53125 60.46875 -157.5 59.72265625 C-155.85484118 59.26190766 -154.20900485 58.80357136 -152.5625 58.34765625 C-151.8921875 58.05761719 -151.221875 57.76757812 -150.53125 57.46875 C-150.20125 56.47875 -149.87125 55.48875 -149.53125 54.46875 C-148.54511719 54.37078125 -147.55898438 54.2728125 -146.54296875 54.171875 C-142.1643067 53.54273793 -138.38134944 51.97098614 -134.34375 50.21875 C-133.66505859 49.93128906 -132.98636719 49.64382813 -132.28710938 49.34765625 C-130.84070219 48.73483988 -129.39569755 48.11870554 -127.9519043 47.49975586 C-125.23776399 46.34374834 -122.51403243 45.2122681 -119.7890625 44.08203125 C-113.36711922 41.41073786 -106.98078548 38.65970887 -100.59375 35.90625 C-89.86144567 31.28879198 -79.08646926 26.7852654 -68.28076172 22.34179688 C-55.46896202 17.05879243 -42.72497483 11.61707163 -29.98339844 6.16723633 C-29.15083023 5.81188812 -28.31826202 5.45653992 -27.46046448 5.09042358 C-25.90492489 4.42649184 -24.34997438 3.76117737 -22.79576111 3.09414673 C-7.70623689 -3.34164255 -7.70623689 -3.34164255 0 0 Z " fill="#70B0EF" transform="translate(416.53125,258.53125)"/>
<path d="M0 0 C0.99 0.495 0.99 0.495 2 1 C2 2.32 2 3.64 2 5 C2.66 5 3.32 5 4 5 C4.309375 6.485 4.309375 6.485 4.625 8 C5.77317002 12.14523148 8.05711926 15.01213805 10.7578125 18.30078125 C12 20 12 20 12 22 C12.66 22 13.32 22 14 22 C14 22.66 14 23.32 14 24 C15.32 24.66 16.64 25.32 18 26 C18 26.66 18 27.32 18 28 C19.65 28.33 21.3 28.66 23 29 C23 29.66 23 30.32 23 31 C23.66 31 24.32 31 25 31 C25.33 31.66 25.66 32.32 26 33 C29.90296074 35.40182199 33.6830511 37.4302004 38 39 C38 39.66 38 40.32 38 41 C38.60328125 41.19335938 39.2065625 41.38671875 39.828125 41.5859375 C40.62734375 41.84632812 41.4265625 42.10671875 42.25 42.375 C43.03890625 42.63023438 43.8278125 42.88546875 44.640625 43.1484375 C46.87944777 43.95648943 48.88182347 44.91953564 51 46 C53.26421442 47.01489757 55.53582985 48.01336072 57.8125 49 C58.99457031 49.515625 60.17664063 50.03125 61.39453125 50.5625 C64.91858297 51.96753904 68.34037523 53.02534961 72 54 C72 54.66 72 55.32 72 56 C72.763125 56.144375 73.52625 56.28875 74.3125 56.4375 C77 57 77 57 80 58 C79.505 58.99 79.505 58.99 79 60 C16.90444025 38.06758918 16.90444025 38.06758918 3 11.8125 C1.17309899 7.83851945 0.28396447 4.35412183 0 0 Z " fill="#1C40AE" transform="translate(51,79)"/>
<path d="M0 0 C0 0.66 0 1.32 0 2 C-1.74906531 2.64836042 -3.49929219 3.29358784 -5.25 3.9375 C-6.22453125 4.29714844 -7.1990625 4.65679687 -8.203125 5.02734375 C-10.46457161 5.81379655 -12.66796552 6.47251601 -15 7 C-15 7.66 -15 8.32 -15 9 C-16.98 9.99 -18.96 10.98 -21 12 C-21 12.66 -21 13.32 -21 14 C-21.5775 14.061875 -22.155 14.12375 -22.75 14.1875 C-25.2400156 14.86414758 -25.2400156 14.86414758 -26.9375 17.4375 C-29 20 -29 20 -31.28125 20.75390625 C-35.11712167 22.5120141 -37.03818781 25.19280667 -39.5625 28.5 C-40.2903772 29.43525513 -40.2903772 29.43525513 -41.03295898 30.3894043 C-44.31648533 34.74268689 -46.66853683 38.97312474 -48.31640625 44.20703125 C-49 46 -49 46 -51 47 C-50.56909906 35.36567457 -43.08472876 26.81686124 -35 19 C-26.16896384 11.18975565 -16.6651406 5.92732069 -6 1 C-4 0 -4 0 0 0 Z " fill="#1F38A7" transform="translate(102,386)"/>
<path d="M0 0 C0.66 0 1.32 0 2 0 C1.5614926 8.33164057 -3.97824098 15.69703097 -9.91015625 21.2265625 C-30.90397513 39.04187796 -30.90397513 39.04187796 -42 41 C-42 40.34 -42 39.68 -42 39 C-41.31035156 38.63648438 -40.62070312 38.27296875 -39.91015625 37.8984375 C-28.54591299 32.79420695 -28.54591299 32.79420695 -21 24 C-19.68 24 -18.36 24 -17 24 C-16.67 22.68 -16.34 21.36 -16 20 C-14.576875 19.9071875 -14.576875 19.9071875 -13.125 19.8125 C-12.09375 19.544375 -11.0625 19.27625 -10 19 C-8.84979475 16.75256244 -8.84979475 16.75256244 -8 14 C-7.15844855 12.95142151 -6.28054931 11.93133406 -5.375 10.9375 C-2.5808519 8.11116387 -2.5808519 8.11116387 -3 4 C-2.01 4 -1.02 4 0 4 C-0.495 2.515 -0.495 2.515 -1 1 C-0.67 0.67 -0.34 0.34 0 0 Z " fill="#29A7F5" transform="translate(457,84)"/>
<path d="M0 0 C0.33 0 0.66 0 1 0 C1.76881521 9.6016477 1.76881521 9.6016477 -0.078125 12.9609375 C-1.32044185 14.36746865 -2.6567534 15.68951551 -4 17 C-4.33 17.99 -4.66 18.98 -5 20 C-6.56640625 21.54296875 -6.56640625 21.54296875 -8.5625 23.1875 C-11.58954511 25.73346116 -14.34950908 28.37274596 -17.0625 31.25 C-20.53572886 34.77771088 -23.33032669 36.41407322 -28 38 C-29.4540625 38.5878125 -29.4540625 38.5878125 -30.9375 39.1875 C-31.618125 39.455625 -32.29875 39.72375 -33 40 C-31.69352503 36.0805751 -30.10855418 35.58225893 -26.625 33.4375 C-13.4720424 24.87241928 -4.23094096 15.36499612 0 0 Z " fill="#B6D2FD" transform="translate(460,81)"/>
<path d="M0 0 C-0.63164062 0.21914063 -1.26328125 0.43828125 -1.9140625 0.6640625 C-8.76894516 3.09389123 -15.39593756 5.86278626 -22.03125 8.828125 C-25 10 -25 10 -28 10 C-28 10.66 -28 11.32 -28 12 C-28.86238281 12.24492187 -29.72476563 12.48984375 -30.61328125 12.7421875 C-39.59342738 15.49217945 -47.59797336 19.16704169 -55.82739258 23.69677734 C-56.98984497 24.33607178 -56.98984497 24.33607178 -58.17578125 24.98828125 C-58.86583252 25.37540283 -59.55588379 25.76252441 -60.2668457 26.16137695 C-62 27 -62 27 -64 27 C-64 26.34 -64 25.68 -64 25 C-61 23 -61 23 -57 23 C-56.67 21.35 -56.34 19.7 -56 18 C-54.02 18 -52.04 18 -50 18 C-50 17.67 -50 17.34 -50 17 C-46.38026598 15.68373308 -43.90432869 15 -40 15 C-40 14.34 -40 13.68 -40 13 C-39.18208984 12.74476563 -39.18208984 12.74476563 -38.34765625 12.484375 C-33.34737809 10.877448 -28.5997776 9.00730268 -23.84765625 6.76953125 C-22 6 -22 6 -20 6 C-20 5.34 -20 4.68 -20 4 C-17.23208055 3.13521219 -14.46134374 2.28288326 -11.6875 1.4375 C-10.90181641 1.19064453 -10.11613281 0.94378906 -9.30664062 0.68945312 C-8.54931641 0.46064453 -7.79199219 0.23183594 -7.01171875 -0.00390625 C-6.31522217 -0.21861572 -5.61872559 -0.4333252 -4.90112305 -0.65454102 C-3 -1 -3 -1 0 0 Z " fill="#1287E3" transform="translate(144,368)"/>
<path d="M0 0 C-6.62191944 4.44004276 -13.17491741 7.2415169 -20.72265625 9.765625 C-24.3383148 11.1274225 -27.22801572 12.89432919 -30.390625 15.0703125 C-32.62544842 16.36130273 -34.47564403 16.21637337 -37 16 C-37.99 16.66 -38.98 17.32 -40 18 C-42.26171875 18.4140625 -42.26171875 18.4140625 -44.6875 18.625 C-45.49574219 18.69976562 -46.30398438 18.77453125 -47.13671875 18.8515625 C-48.05904297 18.92503906 -48.05904297 18.92503906 -49 19 C-46.41047833 16.41047833 -44.03257513 15.85432702 -40.5625 14.6875 C-35.30300468 12.87284378 -30.24841383 10.82328591 -25.20703125 8.47265625 C-20.83015171 6.46281022 -16.42275466 4.53146684 -12 2.625 C-11.16186768 2.25463623 -10.32373535 1.88427246 -9.46020508 1.50268555 C-8.6689624 1.16406494 -7.87771973 0.82544434 -7.0625 0.4765625 C-6.35222656 0.16799316 -5.64195312 -0.14057617 -4.91015625 -0.45849609 C-3 -1 -3 -1 0 0 Z " fill="#ABD2FD" transform="translate(417,126)"/>
<path d="M0 0 C0.66 0.66 1.32 1.32 2 2 C-0.51892982 2.70530035 -2.89114084 3.11139261 -5.5 3.4375 C-8.52429219 3.92354696 -10.46916686 4.34522449 -13 6 C-13.33 6.66 -13.66 7.32 -14 8 C-15.625 8.5 -15.625 8.5 -18 9 C-23.56896332 10.36382775 -28.40845752 12.52653969 -33.546875 15.07421875 C-36 16 -36 16 -39 15 C-34.77614544 11.55834073 -31.49939416 10 -26 10 C-26 9.34 -26 8.68 -26 8 C-22.00694918 6.31626357 -18.00568055 4.65345045 -14 3 C-13.21882813 2.67 -12.43765625 2.34 -11.6328125 2 C-7.62526808 0.37826996 -4.32587105 -0.51498465 0 0 Z " fill="#1F37A7" transform="translate(142,370)"/>
<path d="M0 0 C-1.25103516 0.90878906 -1.25103516 0.90878906 -2.52734375 1.8359375 C-13.6133787 10.02989152 -25.59513374 19.64595452 -28 34 C-28.33 34 -28.66 34 -29 34 C-29 31.69 -29 29.38 -29 27 C-28.34 27 -27.68 27 -27 27 C-26.90074219 26.278125 -26.80148438 25.55625 -26.69921875 24.8125 C-24.84049624 17.33607427 -18.93735459 11.55657445 -13 7 C-12.34 6.01 -11.68 5.02 -11 4 C-10.01 3.67 -9.02 3.34 -8 3 C-7.34 2.01 -6.68 1.02 -6 0 C-3.39677846 -0.97620808 -2.52782417 -1.26391209 0 0 Z " fill="#138AE3" transform="translate(80,396)"/>
<path d="M0 0 C9.72873566 4.486867 16.97367211 13.59156978 21 23.375 C21.96410791 26.86989118 22.02703381 27.76199062 21 31 C20.81824219 30.21753906 20.63648438 29.43507813 20.44921875 28.62890625 C20.19785156 27.61699219 19.94648438 26.60507812 19.6875 25.5625 C19.44386719 24.55316406 19.20023437 23.54382813 18.94921875 22.50390625 C18.63597656 21.67761719 18.32273437 20.85132813 18 20 C17.01 19.67 16.02 19.34 15 19 C14.3125 16.9375 14.3125 16.9375 14 15 C12.68 15 11.36 15 10 15 C10.33 13.35 10.66 11.7 11 10 C10.34 10 9.68 10 9 10 C8.401875 9.236875 7.80375 8.47375 7.1875 7.6875 C4.97061852 4.96390275 2.99086558 3.74467159 0 2 C0 1.34 0 0.68 0 0 Z " fill="#189DED" transform="translate(438,401)"/>
<path d="M0 0 C-1.86458515 0.93229258 -3.72979996 1.8633411 -5.59765625 2.7890625 C-7.19942133 3.59645628 -8.79083082 4.42472957 -10.37109375 5.2734375 C-15.62991791 8.05009666 -20.6725438 9.93149873 -26.45703125 11.32421875 C-29.07716665 12.02050665 -31.50426256 12.94704076 -34 14 C-34 13.34 -34 12.68 -34 12 C-30.3890235 10.46941362 -26.777768 8.93948757 -23.16625977 7.41015625 C-21.3379074 6.63576125 -19.50977245 5.86085298 -17.68164062 5.0859375 C-16.52470703 4.59609375 -15.36777344 4.10625 -14.17578125 3.6015625 C-12.58117065 2.92601318 -12.58117065 2.92601318 -10.9543457 2.23681641 C-9.97941162 1.82866699 -9.00447754 1.42051758 -8 1 C-6.66424927 0.39357666 -6.66424927 0.39357666 -5.30151367 -0.22509766 C-3 -1 -3 -1 0 0 Z " fill="#3F80DB" transform="translate(370,274)"/>
<path d="M0 0 C5.01123298 1.28493153 8.68998818 3.64405066 12.88671875 6.54296875 C15.19873526 8.1370208 17.58004161 9.57649507 20 11 C20.99 11.66 21.98 12.32 23 13 C23 13.66 23 14.32 23 15 C23.99 15 24.98 15 26 15 C25.67 16.32 25.34 17.64 25 19 C24.35675781 18.443125 23.71351563 17.88625 23.05078125 17.3125 C16.82865734 12.05786754 10.57891924 7.71948826 3.5546875 3.62890625 C1 2 1 2 0 0 Z " fill="#76CAFD" transform="translate(422,389)"/>
<path d="M0 0 C-4.42778844 2.74522883 -7.71862571 4.48474397 -13 5 C-13 5.66 -13 6.32 -13 7 C-13.69867188 7.19335938 -14.39734375 7.38671875 -15.1171875 7.5859375 C-16.02726562 7.84632813 -16.93734375 8.10671875 -17.875 8.375 C-18.77992188 8.63023437 -19.68484375 8.88546875 -20.6171875 9.1484375 C-23.14569726 9.8604315 -23.14569726 9.8604315 -25 12 C-25.99 11.34 -26.98 10.68 -28 10 C-26.0199047 9.11602888 -24.03884898 8.23418102 -22.0546875 7.359375 C-19.67722247 6.30137266 -17.31022913 5.22605266 -14.9453125 4.140625 C-13.50532167 3.48933268 -12.06521687 2.83829232 -10.625 2.1875 C-9.5721582 1.69817993 -9.5721582 1.69817993 -8.49804688 1.19897461 C-3.33932038 -1.11310679 -3.33932038 -1.11310679 0 0 Z " fill="#3983DD" transform="translate(317,296)"/>
<path d="M0 0 C-1.50368082 3.00736164 -3.76199294 3.40016389 -6.8125 4.6875 C-7.87082031 5.14511719 -8.92914063 5.60273438 -10.01953125 6.07421875 C-12.98366296 6.99492545 -14.17496557 7.12864571 -17 6 C-17 5.67 -17 5.34 -17 5 C-16.21625 4.938125 -15.4325 4.87625 -14.625 4.8125 C-13.75875 4.544375 -12.8925 4.27625 -12 4 C-10.84478498 1.52869082 -10.84478498 1.52869082 -10 -1 C-6.06329512 -2.31223496 -3.87511856 -1.24296256 0 0 Z " fill="#2E74DE" transform="translate(256,191)"/>
<path d="M0 0 C-1.14871146 3.44613438 -1.66823563 3.69390338 -4.67578125 5.4453125 C-5.42150391 5.88230469 -6.16722656 6.31929688 -6.93554688 6.76953125 C-7.71994141 7.21683594 -8.50433594 7.66414063 -9.3125 8.125 C-10.08529297 8.58003906 -10.85808594 9.03507812 -11.65429688 9.50390625 C-15.09465614 11.49771721 -18.07823851 13.1826235 -22 14 C-22 13.34 -22 12.68 -22 12 C-21.31035156 11.63648437 -20.62070312 11.27296875 -19.91015625 10.8984375 C-14.3099949 7.90246641 -8.96910742 4.76302331 -3.77734375 1.1015625 C-2 0 -2 0 0 0 Z " fill="#1F96E9" transform="translate(437,111)"/>
<path d="M0 0 C0.66 0 1.32 0 2 0 C2 0.66 2 1.32 2 2 C3.423125 1.938125 3.423125 1.938125 4.875 1.875 C8 2 8 2 10 4 C3.11183154 5.9001844 -2.26184473 7.1708966 -9 4 C-8.34 3.34 -7.68 2.68 -7 2 C-4.69 2.66 -2.38 3.32 0 4 C0 2.68 0 1.36 0 0 Z " fill="#283DA7" transform="translate(140,136)"/>
<path d="M0 0 C-5.75 3 -5.75 3 -8 3 C-8 3.66 -8 4.32 -8 5 C-9.258125 5.28875 -10.51625 5.5775 -11.8125 5.875 C-14.8539399 6.57303539 -16.30669878 7.20446585 -19 9 C-21.6875 9.125 -21.6875 9.125 -24 9 C-20.81029262 5.81029262 -16.6795531 4.54838773 -12.5625 2.8125 C-11.69044922 2.43158203 -10.81839844 2.05066406 -9.91992188 1.65820312 C-8.66211914 1.12549805 -8.66211914 1.12549805 -7.37890625 0.58203125 C-6.22757202 0.09053589 -6.22757202 0.09053589 -5.05297852 -0.41088867 C-3 -1 -3 -1 0 0 Z " fill="#4380D8" transform="translate(396,263)"/>
<path d="M0 0 C1.828125 0.21875 1.828125 0.21875 4 1 C8.49466715 6.96134801 9.58724244 12.71819378 9 20 C7.04917485 16.2544157 5.58408963 12.38527448 4.09765625 8.4375 C2.99322898 5.98496401 1.614873 4.13476089 0 2 C0 1.34 0 0.68 0 0 Z " fill="#75CDFE" transform="translate(452,412)"/>
<path d="M0 0 C-3.732388 3.57011026 -8.0949989 4.10913442 -13 5 C-13 5.66 -13 6.32 -13 7 C-13.66 6.67 -14.32 6.34 -15 6 C-15 5.34 -15 4.68 -15 4 C-13.06767179 3.13419713 -11.12892806 2.28270059 -9.1875 1.4375 C-8.10855469 0.96183594 -7.02960938 0.48617188 -5.91796875 -0.00390625 C-3 -1 -3 -1 0 0 Z " fill="#437EDB" transform="translate(411,257)"/>
<path d="M0 0 C0 0.66 0 1.32 0 2 C-0.99 2 -1.98 2 -3 2 C-3 2.66 -3 3.32 -3 4 C-5.96178773 5.67110042 -8.37071192 6.32682752 -11.75 6.625 C-12.54921875 6.69976562 -13.3484375 6.77453125 -14.171875 6.8515625 C-15.07679687 6.92503906 -15.07679687 6.92503906 -16 7 C-14 4 -14 4 -11.94140625 3.33984375 C-11.15636719 3.20707031 -10.37132813 3.07429687 -9.5625 2.9375 C-6.09531557 2.33773993 -3.27301021 0 0 0 Z " fill="#177CE6" transform="translate(120,248)"/>
<path d="M0 0 C5.01508715 1.54058233 9.6147081 3.02931839 14 6 C13.01 6.33 12.02 6.66 11 7 C10.01 6.34 9.02 5.68 8 5 C7.01 5 6.02 5 5 5 C2.97676387 4.04788888 0.97300116 3.05226728 -1 2 C-0.67 1.34 -0.34 0.68 0 0 Z " fill="#1789DE" transform="translate(410,385)"/>
<path d="M0 0 C0.33 0.99 0.66 1.98 1 3 C-0.75 5.6875 -0.75 5.6875 -3 8 C-3.99 8 -4.98 8 -6 8 C-6.66 9.32 -7.32 10.64 -8 12 C-8.66 11.67 -9.32 11.34 -10 11 C-6.7 7.37 -3.4 3.74 0 0 Z " fill="#193DA9" transform="translate(67,405)"/>
<path d="M0 0 C-5.11546412 3.21543459 -10.27151329 5.1349113 -16 7 C-16.33 6.34 -16.66 5.68 -17 5 C-14.73392948 3.96724659 -12.46318061 2.94866449 -10.1875 1.9375 C-9.22360352 1.49567383 -9.22360352 1.49567383 -8.24023438 1.04492188 C-3.33984375 -1.11328125 -3.33984375 -1.11328125 0 0 Z " fill="#3D82DA" transform="translate(334,289)"/>
<path d="M0 0 C0.99 0.33 1.98 0.66 3 1 C1.70700306 3.88437779 0.34058637 5.87219421 -2 8 C-2.99 7.67 -3.98 7.34 -5 7 C-5 6.01 -5 5.02 -5 4 C-3.68 4 -2.36 4 -1 4 C-0.67 2.68 -0.34 1.36 0 0 Z " fill="#17A1F3" transform="translate(441,104)"/>
<path d="M0 0 C-0.969375 0.45375 -1.93875 0.9075 -2.9375 1.375 C-6.07079582 2.65786221 -6.07079582 2.65786221 -7 5 C-8.65 4.67 -10.3 4.34 -12 4 C-9.8923766 -0.2152468 -4.26296995 -1.87570678 0 0 Z " fill="#3383DF" transform="translate(268,317)"/>
<path d="M0 0 C4.75 0.75 4.75 0.75 7 3 C3.25 6 3.25 6 1 6 C1 5.34 1 4.68 1 4 C0.34 4 -0.32 4 -1 4 C-0.67 2.68 -0.34 1.36 0 0 Z " fill="#4186DF" transform="translate(413,258)"/>
<path d="M0 0 C1.9375 0.3125 1.9375 0.3125 4 1 C4.33 1.99 4.66 2.98 5 4 C5.99 4 6.98 4 8 4 C7.67 5.32 7.34 6.64 7 8 C5.8274869 7.04882866 4.66212985 6.08882991 3.5 5.125 C2.8503125 4.59132813 2.200625 4.05765625 1.53125 3.5078125 C1.0259375 3.01023437 0.520625 2.51265625 0 2 C0 1.34 0 0.68 0 0 Z " fill="#82D3FE" transform="translate(440,400)"/>
<path d="M0 0 C0.33 0 0.66 0 1 0 C1.50512244 1.60256108 2.00391627 3.20711792 2.5 4.8125 C2.7784375 5.70582031 3.056875 6.59914063 3.34375 7.51953125 C4 10 4 10 4 13 C2.015625 11.82421875 2.015625 11.82421875 0 10 C-0.390625 7.51953125 -0.390625 7.51953125 -0.25 4.8125 C-0.21390625 3.91144531 -0.1778125 3.01039062 -0.140625 2.08203125 C-0.07101563 1.05142578 -0.07101563 1.05142578 0 0 Z " fill="#1284E1" transform="translate(51,81)"/>
<path d="M0 0 C4.95 0.33 9.9 0.66 15 1 C15 1.33 15 1.66 15 2 C8.565 2.495 8.565 2.495 2 3 C2 2.34 2 1.68 2 1 C1.34 0.67 0.68 0.34 0 0 Z " fill="#2B3EA4" transform="translate(184,379)"/>
<path d="M0 0 C2.50357861 0.8345262 4.66785852 1.79371992 7 3 C7 3.66 7 4.32 7 5 C4.03 4.505 4.03 4.505 1 4 C0.67 2.68 0.34 1.36 0 0 Z " fill="#84CAFD" transform="translate(382,370)"/>
<path d="M0 0 C0.66 0.33 1.32 0.66 2 1 C-0.97 4.96 -0.97 4.96 -4 9 C-4.33 7.68 -4.66 6.36 -5 5 C-2.5625 2.25 -2.5625 2.25 0 0 Z " fill="#292F9F" transform="translate(61,413)"/>
<path d="M0 0 C1.32 0 2.64 0 4 0 C4 0.66 4 1.32 4 2 C3.34 2 2.68 2 2 2 C1.67 2.99 1.34 3.98 1 5 C-0.32 4.34 -1.64 3.68 -3 3 C-2.01 2.67 -1.02 2.34 0 2 C0 1.34 0 0.68 0 0 Z " fill="#52A1E4" transform="translate(304,336)"/>
<path d="M0 0 C1.32 0.33 2.64 0.66 4 1 C1.99226044 3.00773956 0.63126383 3.99392854 -2 5 C-4.25 4.625 -4.25 4.625 -6 4 C-4.02 3.34 -2.04 2.68 0 2 C0 1.34 0 0.68 0 0 Z " fill="#2973DB" transform="translate(210,208)"/>
<path d="M0 0 C0.33 0 0.66 0 1 0 C1.36923077 7.50769231 1.36923077 7.50769231 -0.5 10 C-0.995 10.33 -1.49 10.66 -2 11 C-1.125 3.375 -1.125 3.375 0 0 Z " fill="#A3D0FE" transform="translate(460,81)"/>
<path d="M0 0 C2.31 0.33 4.62 0.66 7 1 C6.67 1.99 6.34 2.98 6 4 C4.68 3.67 3.36 3.34 2 3 C2 2.34 2 1.68 2 1 C1.34 0.67 0.68 0.34 0 0 Z " fill="#13AEF6" transform="translate(357,10)"/>
<path d="M0 0 C1.98 0 3.96 0 6 0 C6 0.66 6 1.32 6 2 C6.66 2.33 7.32 2.66 8 3 C5.6568787 2.74438677 3.32156597 2.40729228 1 2 C0.67 1.34 0.34 0.68 0 0 Z " fill="#87C9FB" transform="translate(394,377)"/>
<path d="M0 0 C-0.33 0.99 -0.66 1.98 -1 3 C-3.31 3.33 -5.62 3.66 -8 4 C-6.4425489 0.88509781 -3.40085499 0 0 0 Z " fill="#97CFFC" transform="translate(392,135)"/>
</svg>
